<?xml version="1.0" encoding="utf-8"?>
<!-- Generator: Adobe Illustrator 21.1.0, SVG Export Plug-In . SVG Version: 6.00 Build 0)  -->
<svg version="1.1" id="Заголовок_первого_экрана"
	 xmlns="http://www.w3.org/2000/svg" xmlns:xlink="http://www.w3.org/1999/xlink" x="0px" y="0px" viewBox="0 0 390 212"
	 style="enable-background:new 0 0 390 212;" xml:space="preserve">
<style type="text/css">
	.st0{fill:#FFFFFF;}
	.st1{enable-background:new    ;}
	.st2{fill:none;enable-background:new    ;}
</style>
<g>
	<g>
		<g>
			<path class="st0" d="M259.5,35.9c0-0.4-0.6-0.4-0.9-0.4c-2.5,0-13.7,1.8-23,4.8c-0.6,0.2-1.1,0.3-1.4,0.3c-0.7,0-1-0.3-1.6-1.1
				c-0.7-0.9-1.6-2.2-4.1-3.3c-1-0.4-2.2-0.7-3.5-0.7c-5.2,0-11.8,3.4-15.6,8.1c0,0,0,0,0,0c-0.3,0-1.5-1.3-3.5-6.2
				c-1.5-3.6-3-8.2-3.8-11.6c-1.3-5.2-5.1-12.5-7.6-17.3c-1.1-2.1-1.9-3.7-2.1-4.3c-0.2-0.5-0.4-0.7-0.8-0.7c-0.2,0-0.4,0.1-0.6,0.3
				c-2.4,2.6-7.4,23.9-7.1,30.4c0.3,5.4,4.5,9,6.5,10.7c0.2,0.2,0.5,0.4,0.7,0.6c-1.1-0.4-3.4-2.2-6.4-4.7
				c-4.3-3.6-10.9-8.9-19.8-14.8c-12.5-8.2-20.4-16.4-25.2-21.2c-3.2-3.2-4.5-4.6-5.4-4.6c-0.2,0-0.6,0.1-0.8,0.6
				c-1.1,2.9,0.3,32.3,13.6,48.3c7.4,8.9,16.9,13.5,23.1,16.5c3.6,1.7,6.5,3.1,6.9,4.4c0.1,0.3,0.1,0.6-0.1,0.9
				c-0.6,1.2-1.6,2.6-2.9,4.5c-3.6,5-9,12.7-13,25.3c-1.8,5.7-20.5,25.7-25.3,30.5c-0.2,0.2-5.8,5.8-5.1,7.4
				c0.1,0.1,0.2,0.4,0.7,0.4c1.2,0,4.2-2,9.1-5.9c6.4-5.1,10.7-9.4,13.9-12.6c3.1-3.1,5-5,6.4-5.2c-0.1,0.7-0.5,2.3-1.7,6.6
				c0,0.1-0.1,0.3,0,0.5l0.1,0.2h0.2c0.3,0,0.4-0.2,1.7-1.7c3.7-4.6,15.1-18.8,31-22c9.3-1.8,20.8-10.4,24.9-23.3
				c6.1-19.5,11.3-31.8,38.4-38C259.6,36.6,259.5,36.3,259.5,35.9L259.5,35.9z M259.5,35.9"/>
		</g>
	</g>
	<g class="st1">
		<path class="st0" d="M18.3,161.1c0.2-0.2,0.4-0.3,0.6-0.3h10.2c0.2,0,0.4,0.1,0.6,0.3c0.2,0.2,0.3,0.4,0.3,0.6v48.7
			c0,0.2-0.1,0.4-0.3,0.6c-0.2,0.2-0.4,0.3-0.6,0.3H18.9c-0.2,0-0.4-0.1-0.6-0.3c-0.2-0.2-0.3-0.4-0.3-0.6v-18.9
			c0-0.2-0.1-0.4-0.4-0.4h-5.2c-0.2,0-0.4,0.1-0.4,0.4v18.9c0,0.2-0.1,0.4-0.3,0.6c-0.2,0.2-0.4,0.3-0.6,0.3H1
			c-0.2,0-0.4-0.1-0.6-0.3c-0.2-0.2-0.3-0.4-0.3-0.6v-48.7c0-0.2,0.1-0.4,0.3-0.6c0.2-0.2,0.4-0.3,0.6-0.3h10.2
			c0.2,0,0.4,0.1,0.6,0.3c0.2,0.2,0.3,0.4,0.3,0.6v18.8c0,0.2,0.1,0.4,0.4,0.4h5.2c0.2,0,0.4-0.1,0.4-0.4v-18.8
			C18,161.4,18.1,161.2,18.3,161.1z"/>
		<path class="st0" d="M45.5,209.9c-2.3-1.3-4-3.1-5.3-5.4c-1.2-2.3-1.9-5-1.9-8v-34.8c0-0.2,0.1-0.4,0.3-0.6
			c0.2-0.2,0.4-0.3,0.6-0.3h10.2c0.2,0,0.4,0.1,0.6,0.3c0.2,0.2,0.3,0.4,0.3,0.6v36c0,1.2,0.3,2.1,0.8,2.8c0.6,0.7,1.3,1.1,2.2,1.1
			c0.9,0,1.6-0.4,2.2-1.1c0.6-0.7,0.8-1.7,0.8-2.8v-36c0-0.2,0.1-0.4,0.3-0.6c0.2-0.2,0.4-0.3,0.6-0.3h10.2c0.2,0,0.4,0.1,0.6,0.3
			c0.2,0.2,0.3,0.4,0.3,0.6v34.8c0,3-0.6,5.7-1.9,8c-1.2,2.3-3,4.1-5.3,5.4c-2.3,1.3-4.9,1.9-7.8,1.9
			C50.3,211.8,47.7,211.2,45.5,209.9z"/>
		<path class="st0" d="M76.7,211c-0.2-0.2-0.3-0.4-0.3-0.6v-48.7c0-0.2,0.1-0.4,0.3-0.6c0.2-0.2,0.4-0.3,0.6-0.3h10
			c0.5,0,0.8,0.2,1,0.6l5.7,11.3c0.1,0.2,0.3,0.2,0.4,0l5.7-11.3c0.2-0.4,0.6-0.6,1-0.6h10.1c0.2,0,0.4,0.1,0.6,0.3
			c0.2,0.2,0.3,0.4,0.3,0.6v48.7c0,0.2-0.1,0.4-0.3,0.6c-0.2,0.2-0.4,0.3-0.6,0.3H101c-0.2,0-0.4-0.1-0.6-0.3
			c-0.2-0.2-0.3-0.4-0.3-0.6V180c0-0.2,0-0.3-0.1-0.3c-0.1,0-0.2,0-0.3,0.2l-5,9.4c-0.2,0.4-0.3,0.6-0.4,0.6c-0.1,0-0.3-0.2-0.5-0.6
			l-5-9.5c-0.1-0.1-0.2-0.2-0.3-0.2c-0.1,0-0.1,0.1-0.1,0.3v30.5c0,0.2-0.1,0.4-0.3,0.6c-0.2,0.2-0.4,0.3-0.6,0.3H77.3
			C77,211.2,76.8,211.1,76.7,211z"/>
		<path class="st0" d="M120.4,211c-0.2-0.2-0.3-0.4-0.3-0.6v-48.7c0-0.2,0.1-0.4,0.3-0.6c0.2-0.2,0.4-0.3,0.6-0.3h10
			c0.5,0,0.8,0.2,1,0.6l5.7,11.3c0.1,0.2,0.3,0.2,0.4,0l5.7-11.3c0.2-0.4,0.6-0.6,1-0.6h10.1c0.2,0,0.4,0.1,0.6,0.3
			c0.2,0.2,0.3,0.4,0.3,0.6v48.7c0,0.2-0.1,0.4-0.3,0.6c-0.2,0.2-0.4,0.3-0.6,0.3h-10.2c-0.2,0-0.4-0.1-0.6-0.3
			c-0.2-0.2-0.3-0.4-0.3-0.6V180c0-0.2,0-0.3-0.1-0.3c-0.1,0-0.2,0-0.3,0.2l-5,9.4c-0.2,0.4-0.3,0.6-0.4,0.6c-0.1,0-0.3-0.2-0.5-0.6
			l-5-9.5c-0.1-0.1-0.2-0.2-0.3-0.2c-0.1,0-0.1,0.1-0.1,0.3v30.5c0,0.2-0.1,0.4-0.3,0.6c-0.2,0.2-0.4,0.3-0.6,0.3H121
			C120.7,211.2,120.5,211.1,120.4,211z"/>
		<path class="st0" d="M164.4,211c-0.2-0.2-0.3-0.4-0.3-0.6v-48.7c0-0.2,0.1-0.4,0.3-0.6c0.2-0.2,0.4-0.3,0.6-0.3h10.2
			c0.2,0,0.4,0.1,0.6,0.3c0.2,0.2,0.3,0.4,0.3,0.6v48.7c0,0.2-0.1,0.4-0.3,0.6c-0.2,0.2-0.4,0.3-0.6,0.3H165
			C164.7,211.2,164.5,211.1,164.4,211z"/>
		<path class="st0" d="M184.9,211c-0.2-0.2-0.3-0.4-0.3-0.6v-48.7c0-0.2,0.1-0.4,0.3-0.6c0.2-0.2,0.4-0.3,0.6-0.3h11.2
			c0.5,0,0.8,0.2,0.9,0.7l7.3,24.6c0,0.2,0.1,0.3,0.3,0.3c0.1,0,0.2-0.1,0.2-0.3l-0.1-24.4c0-0.2,0.1-0.4,0.3-0.6
			c0.2-0.2,0.4-0.3,0.6-0.3h10.1c0.2,0,0.4,0.1,0.6,0.3c0.2,0.2,0.3,0.4,0.3,0.6v48.7c0,0.2-0.1,0.4-0.3,0.6
			c-0.2,0.2-0.4,0.3-0.6,0.3H205c-0.5,0-0.8-0.2-0.9-0.7l-7.3-24.7c0-0.1-0.1-0.2-0.3-0.2c-0.1,0-0.2,0.1-0.2,0.3l0.1,24.5
			c0,0.2-0.1,0.4-0.3,0.6c-0.2,0.2-0.4,0.3-0.6,0.3h-10.1C185.3,211.2,185.1,211.1,184.9,211z"/>
		<path class="st0" d="M229.3,207.9c-2.7-2.6-4.1-6-4.1-10.3v-23.3c0-4.3,1.4-7.8,4.1-10.3c2.7-2.5,6.4-3.8,10.9-3.8
			c4.6,0,8.2,1.3,11,3.9c2.8,2.6,4.1,6,4.1,10.4v2.7c0,0.2-0.1,0.4-0.3,0.6c-0.2,0.2-0.4,0.3-0.6,0.3h-10.2c-0.2,0-0.4-0.1-0.6-0.3
			c-0.2-0.2-0.3-0.4-0.3-0.6v-2.8c0-1.2-0.3-2.1-0.9-2.8s-1.3-1.1-2.3-1.1c-0.9,0-1.7,0.4-2.2,1.1s-0.9,1.7-0.9,2.8v23.3
			c0,1.2,0.3,2.1,0.9,2.8c0.6,0.7,1.3,1.1,2.2,1.1c1,0,1.7-0.4,2.3-1.1c0.6-0.7,0.9-1.7,0.9-2.8v-4.6c0-0.2-0.1-0.4-0.4-0.4h-1.9
			c-0.2,0-0.4-0.1-0.6-0.3c-0.2-0.2-0.3-0.4-0.3-0.6v-7.6c0-0.2,0.1-0.4,0.3-0.6c0.2-0.2,0.4-0.3,0.6-0.3h13.3
			c0.2,0,0.4,0.1,0.6,0.3c0.2,0.2,0.3,0.4,0.3,0.6v13.4c0,4.3-1.4,7.8-4.1,10.3c-2.8,2.6-6.4,3.9-11,3.9
			C235.7,211.8,232.1,210.5,229.3,207.9z"/>
		<path class="st0" d="M289.5,207.6c-2.8,2.4-6.4,3.6-10.8,3.6h-14.5c-0.2,0-0.4-0.1-0.6-0.3c-0.2-0.2-0.3-0.4-0.3-0.6v-48.7
			c0-0.2,0.1-0.4,0.3-0.6c0.2-0.2,0.4-0.3,0.6-0.3h12.7c5,0,8.9,1.2,11.8,3.5c2.9,2.3,4.3,5.8,4.3,10.5c0,4.6-1.5,8-4.5,10.2
			c-0.2,0.1-0.3,0.3-0.1,0.4c3.6,2.7,5.5,6.6,5.5,11.8C293.7,201.7,292.3,205.2,289.5,207.6z M275.2,171.4v9.2
			c0,0.2,0.1,0.4,0.4,0.4h1.4c1.3,0,2.4-0.4,3.1-1.3c0.7-0.8,1.1-2.1,1.1-3.6c0-1.6-0.4-2.9-1.1-3.7s-1.8-1.3-3.1-1.3h-1.4
			C275.3,171,275.2,171.2,275.2,171.4z M280.7,199.5c0.7-1,1.1-2.3,1.1-4.1c0-1.8-0.4-3.2-1.1-4.2c-0.7-1.1-1.7-1.6-2.9-1.6h-2.2
			c-0.2,0-0.4,0.1-0.4,0.4v10.7c0,0.2,0.1,0.4,0.4,0.4h2.2C279,200.9,280,200.4,280.7,199.5z"/>
		<path class="st0" d="M301.4,211c-0.2-0.2-0.3-0.4-0.3-0.6v-48.7c0-0.2,0.1-0.4,0.3-0.6c0.2-0.2,0.4-0.3,0.6-0.3h10.2
			c0.2,0,0.4,0.1,0.6,0.3c0.2,0.2,0.3,0.4,0.3,0.6v48.7c0,0.2-0.1,0.4-0.3,0.6c-0.2,0.2-0.4,0.3-0.6,0.3h-10.2
			C301.8,211.2,301.6,211.1,301.4,211z"/>
		<path class="st0" d="M340.4,210.5l-4.9-19.1c0-0.2-0.2-0.3-0.4-0.3H334c-0.2,0-0.4,0.1-0.4,0.4v18.9c0,0.2-0.1,0.4-0.3,0.6
			c-0.2,0.2-0.4,0.3-0.6,0.3h-10.2c-0.2,0-0.4-0.1-0.6-0.3c-0.2-0.2-0.3-0.4-0.3-0.6v-48.7c0-0.2,0.1-0.4,0.3-0.6
			c0.2-0.2,0.4-0.3,0.6-0.3h15.5c2.8,0,5.3,0.7,7.4,2c2.2,1.3,3.8,3.2,5,5.5c1.2,2.4,1.8,5.1,1.8,8.1c0,2.7-0.5,5.1-1.5,7.2
			c-1,2.1-2.4,3.9-4.1,5.1c-0.1,0-0.2,0.1-0.2,0.2s0,0.2,0,0.3l6.2,21l0.1,0.3c0,0.5-0.3,0.7-0.8,0.7h-10.5
			C340.8,211.2,340.5,211,340.4,210.5z M333.7,171.4v10.2c0,0.2,0.1,0.4,0.4,0.4h2c1.3,0,2.3-0.5,3.1-1.4c0.8-1,1.2-2.3,1.2-4
			c0-1.8-0.4-3.1-1.2-4.1c-0.8-1-1.8-1.4-3.1-1.4h-2C333.8,171,333.7,171.2,333.7,171.4z"/>
		<path class="st0" d="M360.2,211c-0.2-0.2-0.3-0.4-0.3-0.6v-48.7c0-0.2,0.1-0.4,0.3-0.6c0.2-0.2,0.4-0.3,0.6-0.3h13.8
			c4.6,0,8.3,1.3,11.1,3.9c2.8,2.6,4.2,6,4.2,10.3v22c0,4.3-1.4,7.7-4.2,10.3c-2.8,2.6-6.5,3.9-11.1,3.9h-13.8
			C360.6,211.2,360.4,211.1,360.2,211z M372.3,201l2-0.1c1,0,1.8-0.5,2.5-1.3c0.7-0.8,1-2,1.1-3.3v-20.4c0-1.4-0.3-2.6-1-3.5
			c-0.7-0.9-1.6-1.3-2.7-1.3h-1.9c-0.2,0-0.4,0.1-0.4,0.4v29.2C371.9,200.9,372,201,372.3,201z"/>
	</g>
</g>
<path class="st2" d="z"/>
</svg>
