<svg xmlns="http://www.w3.org/2000/svg" viewBox="0 0 130.09 140"><title>logo</title><path d="M130.08,36c0-.42-.57-.42-.88-.42-2.49,0-13.82,1.82-23.16,4.82a5,5,0,0,1-1.45.29c-.72,0-1-.34-1.57-1.12a8.81,8.81,0,0,0-4.12-3.29,9,9,0,0,0-3.56-.67c-5.24,0-11.87,3.43-15.76,8.16l0,0c-.34,0-1.51-1.31-3.53-6.29a96.09,96.09,0,0,1-3.87-11.74C70.83,20.58,67,13.22,64.51,8.34,63.43,6.26,62.58,4.62,62.37,4s-.42-.75-.77-.75a.91.91,0,0,0-.65.34c-2.46,2.57-7.47,24.06-7.16,30.65C54,39.63,58.32,43.29,60.37,45l.71.62c-1.09-.39-3.38-2.26-6.42-4.75A231.7,231.7,0,0,0,34.7,26,148,148,0,0,1,9.29,4.6C6.09,1.33,4.75,0,3.81,0A.87.87,0,0,0,3,.64C1.9,3.52,3.25,33.24,16.64,49.3c7.48,9,17,13.58,23.31,16.62,3.64,1.76,6.51,3.14,6.95,4.45a1.09,1.09,0,0,1-.08.89,38.75,38.75,0,0,1-3,4.5,84.23,84.23,0,0,0-13.11,25.56c-1.8,5.75-20.63,25.9-25.53,30.8C5,132.36-.6,138,.05,139.58a.7.7,0,0,0,.7.42c1.17,0,4.26-2,9.18-6a175.28,175.28,0,0,0,14-12.7c3.12-3.09,5.08-5,6.42-5.22-.12.66-.51,2.35-1.69,6.61a.62.62,0,0,0,0,.52l.13.21h.18c.28,0,.43-.23,1.67-1.76C34.53,117,46,102.68,62,99.55,71.34,97.71,83,89,87.06,76c6.2-19.7,11.39-32.09,38.77-38.37,4.32-1,4.3-1.23,4.25-1.6Zm0,0" style="fill:#00c5d7"/></svg>